<?xml version="1.0" encoding="utf-8"?>
<svg version="1.1" id="Layer_1" xmlns="http://www.w3.org/2000/svg" xmlns:xlink="http://www.w3.org/1999/xlink" x="0px" y="0px"
	 viewBox="0 0 164.6 24" style="enable-background:new 0 0 164.6 24;" xml:space="preserve">
<style type="text/css">
	.st0{fill:#FFFFFF;}
</style>
<g id="Artboard">
	<path class="st0" d="M163.3,9.7h1.2c0-1.1-0.9-1.8-2.2-1.8c-1.3,0-2.2,0.7-2.2,1.8c0,0.9,0.6,1.4,1.6,1.6l0.6,0.2
		c0.6,0.1,1,0.3,1,0.7c0,0.4-0.4,0.7-1,0.7c-0.6,0-1.1-0.3-1.1-0.9H160c0,1.3,0.9,1.9,2.4,1.9c1.4,0,2.3-0.7,2.3-1.8
		c0-1-0.7-1.5-1.8-1.7l-0.5-0.1c-0.5-0.1-0.9-0.3-0.9-0.7c0-0.4,0.3-0.7,0.9-0.7C162.9,8.9,163.3,9.2,163.3,9.7 M155.7,10.4V9h1
		c0.6,0,0.9,0.3,0.9,0.7c0,0.5-0.4,0.7-0.9,0.7L155.7,10.4L155.7,10.4z M155.7,12.8v-1.6h1c0.6,0,1,0.3,1,0.8c0,0.4-0.3,0.7-1,0.7
		L155.7,12.8L155.7,12.8z M154.4,13.9h2.5c1.3,0,2-0.7,2-1.6c0-0.9-0.6-1.4-1.3-1.4v0c0.6-0.1,1.1-0.6,1.1-1.3c0-0.9-0.7-1.5-2-1.5
		h-2.3V13.9z M149.8,11.5l0.7-2.2h0l0.7,2.2H149.8z M149.1,13.9l0.4-1.3h2.1l0.4,1.3h1.3l-2-5.9h-1.6l-2,5.9H149.1z M143,13.9h3.8
		v-1h-2.5V8H143V13.9z M140.4,10.9c0,1.2-0.6,1.9-1.5,1.9s-1.5-0.7-1.5-1.9S138,9,139,9S140.4,9.7,140.4,10.9 M141.7,10.9
		c0-1.9-1.2-3-2.8-3s-2.8,1.1-2.8,3s1.2,3,2.8,3S141.7,12.8,141.7,10.9 M130.6,9h1.8v4.8h1.2V9h1.8V8h-4.8L130.6,9L130.6,9z
		 M128.5,10.9c0,1.2-0.6,1.9-1.5,1.9c-0.9,0-1.5-0.7-1.5-1.9S126.1,9,127,9C127.9,9,128.5,9.7,128.5,10.9 M129.8,10.9
		c0-1.9-1.2-3-2.8-3c-1.6,0-2.8,1.1-2.8,3s1.2,3,2.8,3C128.6,13.9,129.8,12.8,129.8,10.9 M120,10.8V9h0.8c0.7,0,1.1,0.3,1.1,0.9
		c0,0.6-0.3,0.9-1.1,0.9H120z M118.8,13.9h1.2v-2.1h0.9l1.1,2.1h1.4l-1.2-2.3c0.7-0.3,1-0.9,1-1.7c0-1.2-0.8-1.9-2.1-1.9h-2.3V13.9z
		 M114.4,10.9V9h0.8c0.7,0,1.1,0.4,1.1,1c0,0.6-0.3,1-1.1,1H114.4z M113.2,13.9h1.2V12h1.1c1.3,0,2.1-0.8,2.1-2c0-1.2-0.8-2-2.1-2
		h-2.3L113.2,13.9L113.2,13.9z M106.6,11.5l0.7-2.2h0l0.7,2.2H106.6z M105.8,13.9l0.4-1.3h2.1l0.4,1.3h1.3l-2-5.9h-1.6l-2,5.9H105.8
		z"/>
	<g>
		<polygon class="st0" points="147.1,17.7 145.7,20.2 145.7,20.2 144.4,17.7 143,17.7 145.1,21.4 145.1,23.5 146.3,23.5 146.3,21.4 
			148.5,17.7 		"/>
		<polygon class="st0" points="140.7,21.3 140.6,21.3 138.1,17.7 137,17.7 137,23.5 138.3,23.5 138.3,19.8 138.3,19.8 140.9,23.5 
			141.9,23.5 141.9,17.7 140.7,17.7 		"/>
		<g>
			<path class="st0" d="M133.9,17.7h-1.6l-2,5.9h1.3l0.4-1.3h2.1l0.4,1.3h1.3L133.9,17.7z M132.4,21.2l0.7-2.2h0l0.7,2.2H132.4z"/>
			<path class="st0" d="M127.8,17.7h-2.3v5.9h1.2v-1.9h1.1c1.3,0,2.1-0.8,2.1-2C130,18.5,129.2,17.7,127.8,17.7z M127.6,20.6h-0.8
				v-2h0.8c0.7,0,1.1,0.4,1.1,1C128.7,20.2,128.3,20.6,127.6,20.6z"/>
		</g>
		<polygon class="st0" points="120.9,21.6 120.8,21.6 119.2,17.7 117.7,17.7 117.7,23.5 118.9,23.5 118.9,19.7 118.9,19.7 
			120.4,23.5 121.3,23.5 122.8,19.7 122.8,19.7 122.8,23.5 124,23.5 124,17.7 122.5,17.7 		"/>
		<g>
			<path class="st0" d="M113.6,17.6c-1.6,0-2.8,1.1-2.8,3s1.2,3,2.8,3c1.6,0,2.8-1.1,2.8-3C116.4,18.7,115.2,17.6,113.6,17.6z
				 M113.6,22.5c-0.9,0-1.5-0.7-1.5-1.9c0-1.2,0.6-1.9,1.5-1.9s1.5,0.7,1.5,1.9C115.1,21.8,114.5,22.5,113.6,22.5z"/>
		</g>
		<path class="st0" d="M107.3,18.7c0.7,0,1.2,0.4,1.3,1h1.3c-0.2-1.4-1.2-2.1-2.5-2.1c-1.6,0-2.7,1.1-2.7,3s1.2,3,2.7,3
			c1.5,0,2.4-1,2.5-2.1h-1.3c-0.1,0.6-0.6,1-1.3,1c-0.9,0-1.5-0.7-1.5-1.9C105.8,19.4,106.4,18.7,107.3,18.7z"/>
	</g>
	<g>
		<g>
			<path class="st0" d="M5.5,8.3C5.3,7.1,5,4.9,4.9,0.6H0v22.9h4.9C5,19,5.3,16.7,5.6,15.5C5.7,15,6,14.7,6.5,14.6
				c0.7-0.2,1.7-0.3,3.2-0.4V9.6C8.2,9.5,7.1,9.4,6.5,9.2C6,9.1,5.6,8.7,5.5,8.3z"/>
		</g>
		<g>
			<path class="st0" d="M17.2,8.3c-0.1,0.5-0.4,0.8-0.9,0.9c-0.7,0.2-1.7,0.3-3.3,0.4v4.6c1.5,0.1,2.5,0.2,3.2,0.4
				c0.5,0.1,0.8,0.5,0.9,0.9c0.2,1.2,0.5,3.5,0.6,7.9h4.9V0.6h-4.9C17.7,4.9,17.5,7.1,17.2,8.3z"/>
		</g>
		<g>
			<path class="st0" d="M44.3,13.8c0,3.6-2.7,5.1-5.6,5.1c-2.9,0-5.6-1.5-5.6-5.1V0.6h-5.3v12.9c0,7.1,3.8,10.6,10.9,10.6
				s10.9-3.4,10.9-10.6V0.6h-5.3V13.8z"/>
		</g>
		<g>
			<path class="st0" d="M70.7,11.8v-0.4c2.2-0.5,3.9-2,3.9-5.3c0-3.4-2.4-5.6-6.5-5.6H54.6v22.9h13.9c5,0,7.3-2.1,7.3-5.7
				C75.8,14.2,73.6,12.3,70.7,11.8z M59.8,4.9h7.9c1.5,0,2.2,1.1,2.2,2.3c0,1.2-0.7,2.3-2.2,2.3h-7.9V4.9L59.8,4.9z M68.6,18.8h-8.8
				v-4.7h8.8c1.5,0,2.2,1.1,2.2,2.3S70.1,18.8,68.6,18.8z"/>
		</g>
		<g>
			<path class="st0" d="M91.1,9.9l-3.2-0.5c-3.2-0.5-4.2-1.1-4.2-2.5c0-1.4,1.6-2.4,4.9-2.4c3.2,0,4.9,1,5.1,3.5h5
				c-0.3-5.7-4.6-8-10.2-8c-6.2,0-9.9,2.8-9.9,7.1c0,4,2.5,5.8,7.8,6.7l3.4,0.5c3.4,0.5,4.2,1.1,4.2,2.6s-1.5,2.5-5,2.5
				c-3.1,0-5-1.3-5.3-3.6h-5.4C78.7,21.6,83.1,24,89,24c6.5,0,10.3-2.4,10.3-7.1C99.3,12.4,96.1,10.7,91.1,9.9z"/>
		</g>
	</g>
</g>
</svg>
